<svg width="943" height="943" viewBox="0 0 943 943" fill="none" xmlns="http://www.w3.org/2000/svg">
<rect x="137.191" y="137.071" width="668" height="668" rx="334" fill="url(#paint0_linear_363_1140)"/>
<path d="M792.252 379.009C799.975 405.942 804.278 433.739 805.06 461.746" stroke="#148EFF" stroke-width="4"/>
<path d="M546.316 145.63C573.616 151.933 600.014 161.646 624.889 174.54" stroke="#2323FF" stroke-width="4"/>
<path d="M465.369 137.123C493.383 136.634 521.347 139.672 548.602 146.165" stroke="#DF1DFF" stroke-width="4"/>
<path d="M723.27 252.073C755.525 289.178 779.191 332.947 792.577 380.255" stroke="#FF6484" stroke-width="4"/>
<path d="M324.775 170.876C368.965 149.324 417.368 137.792 466.528 137.106" stroke="#6A00F4" stroke-width="4"/>
<path d="M622.842 173.477C672.969 199.018 715.832 236.807 747.454 283.337" stroke="#AEE9FF" stroke-width="4"/>
<path d="M140.454 424.589C148.283 368.877 170.059 316.047 203.759 270.999" stroke="#6998FF" stroke-width="4"/>
<path d="M200.999 274.752C234.067 229.238 278.096 192.814 329 168.861" stroke="#A967FF" stroke-width="4"/>
<path d="M804.988 459.414C806.611 505.898 798.508 552.208 781.197 595.378C763.887 638.549 737.75 677.628 704.462 710.112C671.174 742.597 631.468 767.771 587.887 784.021C544.307 800.272 497.813 807.241 451.383 804.483C404.953 801.724 359.611 789.299 318.261 768.003C276.912 746.706 240.466 717.008 211.258 680.81C182.05 644.613 160.725 602.714 148.648 557.798C136.57 512.881 134.007 465.938 141.123 419.974" stroke="#6EE388" stroke-width="4"/>
<defs>
<linearGradient id="paint0_linear_363_1140" x1="471.191" y1="137.071" x2="471.191" y2="805.071" gradientUnits="userSpaceOnUse">
<stop stop-color="#18121E"/>
<stop offset="1" stop-color="#1C1523"/>
</linearGradient>
</defs>
</svg>
