<svg width="464" height="232" viewBox="0 0 464 232" fill="none" xmlns="http://www.w3.org/2000/svg">
<g clip-path="url(#clip0_225_258)">
<path d="M29.4499 0H10.1406V232H29.4499V0Z" fill="white"/>
<path d="M68.071 212.667C48.7617 212.667 48.7617 232 48.7617 232V0H68.071V212.667Z" fill="white"/>
<path d="M299.782 232H280.473V23.3932C299.782 23.3932 299.782 5.99316 299.782 5.99316V232Z" fill="white"/>
<path d="M338.399 212.86C319.09 212.86 319.09 232 319.09 232V5.99316H338.399V212.86Z" fill="white"/>
<path d="M183.926 232H164.617V96.6665C164.617 96.6665 164.617 116 183.926 116V232Z" fill="white"/>
<path d="M183.926 5.80005H164.617V58H183.926V5.80005Z" fill="white"/>
<path d="M222.544 58C222.544 58 222.544 38.6667 203.234 38.6667V5.80005H222.544V58Z" fill="white"/>
<path d="M222.544 96.6665H203.234V232H222.544V96.6665Z" fill="white"/>
<path d="M39.1078 229.1C33.7765 229.1 29.4531 224.771 29.4531 219.433V232H48.7624V219.433C48.7624 224.771 44.4391 229.1 39.1078 229.1Z" fill="white"/>
<path d="M29.4531 0V12.5667C29.4531 7.22873 33.7765 2.9 39.1078 2.9C44.4391 2.9 48.7624 7.22873 48.7624 12.5667V0H29.4531Z" fill="white"/>
<path d="M309.436 229.1C304.105 229.1 299.781 224.771 299.781 219.433V232H319.091V219.433C319.091 224.771 314.767 229.1 309.436 229.1Z" fill="white"/>
<path d="M299.781 5.99316V18.5598C299.781 13.2219 304.105 8.89316 309.436 8.89316C314.767 8.89316 319.091 13.2219 319.091 18.5598V5.99316H299.781Z" fill="white"/>
<path d="M183.926 5.80005V18.3667C183.926 13.0288 188.249 8.70005 193.58 8.70005C198.912 8.70005 203.235 13.0288 203.235 18.3667V5.80005H183.926Z" fill="white"/>
<path d="M193.58 229.1C188.249 229.1 183.926 224.771 183.926 219.433V232H203.235V219.433C203.235 224.771 198.912 229.1 193.58 229.1Z" fill="white"/>
<path d="M125.997 174H106.688V232H125.997V174Z" fill="white"/>
<path d="M106.688 0H87.3789V154.667H106.688V0Z" fill="white"/>
<path d="M145.309 0H126V154.667H145.309V0Z" fill="white"/>
<path d="M338.401 0H164.617V2.9H338.401V0Z" fill="white"/>
<path fill-rule="evenodd" clip-rule="evenodd" d="M241.855 0H261.165V232H241.855V8.7C242.435 5.22 244.366 3.48 247.648 2.9H241.855V0Z" fill="white"/>
<path d="M261.164 8.6999C261.743 5.2199 263.674 3.4799 266.957 2.8999H261.164V8.6999Z" fill="white"/>
<path d="M68.0703 5.8C68.6496 2.32 70.5805 0.58 73.8631 0H68.0703V5.8Z" fill="white"/>
<path d="M106.687 226.2C106.108 229.68 104.177 231.42 100.895 232H106.687V226.2Z" fill="white"/>
<path d="M10.1444 5.8C9.56507 2.32 7.63414 0.58 4.35156 0H10.1444V5.8Z" fill="white"/>
<path d="M145.309 5.8C145.888 2.32 147.819 0.58 151.101 0H145.309V5.8Z" fill="white"/>
<path d="M126 5.8C125.421 2.32 123.49 0.58 120.207 0H126V5.8Z" fill="white"/>
<path d="M106.688 5.8C107.267 2.32 109.198 0.58 112.48 0H106.688V5.8Z" fill="white"/>
<path d="M87.3787 5.8C86.7994 2.32 84.8685 0.58 81.5859 0H87.3787V5.8Z" fill="white"/>
<path d="M222.547 11.6C223.126 8.12005 225.057 6.38005 228.34 5.80005H222.547V11.6Z" fill="white"/>
<path d="M338.398 11.7932C338.978 8.31316 340.909 6.57316 344.191 5.99316H338.398V11.7932Z" fill="white"/>
<path d="M164.617 11.6C164.038 8.12005 162.107 6.38005 158.824 5.80005H164.617V11.6Z" fill="white"/>
<path d="M222.547 226.2C223.126 229.68 225.057 231.42 228.34 232H222.547V226.2Z" fill="white"/>
<path d="M164.617 226.2C164.038 229.68 162.107 231.42 158.824 232H164.617V226.2Z" fill="white"/>
<path d="M10.1444 226.2C9.56507 229.68 7.63414 231.42 4.35156 232H10.1444V226.2Z" fill="white"/>
<path d="M126 226.2C126.579 229.68 128.51 231.42 131.793 232H126V226.2Z" fill="white"/>
<path d="M454.45 0H435.141V232H454.45V0Z" fill="white"/>
<path d="M454.449 5.8C455.028 2.32 456.959 0.58 460.242 0H454.449V5.8Z" fill="white"/>
<path d="M435.14 226.2C434.561 229.68 432.63 231.42 429.348 232H435.14V226.2Z" fill="white"/>
<path d="M435.14 5.8C434.561 2.32 432.63 0.58 429.348 0H435.14V5.8Z" fill="white"/>
<path d="M454.449 226.2C455.028 229.68 456.959 231.42 460.242 232H454.449V226.2Z" fill="white"/>
<path d="M241.855 226.2C241.276 229.68 239.345 231.42 236.062 232H241.855V226.2Z" fill="white"/>
<path d="M280.472 226.2C279.893 229.68 277.962 231.42 274.68 232H280.472V226.2Z" fill="white"/>
<path d="M261.164 226.2C261.743 229.68 263.674 231.42 266.957 232H261.164V226.2Z" fill="white"/>
<path d="M357.711 226.2C357.131 229.68 355.201 231.42 351.918 232H357.711V226.2Z" fill="white"/>
<path d="M377.02 226.2C377.599 229.68 379.53 231.42 382.812 232H377.02V226.2Z" fill="white"/>
<path d="M377.02 0H357.711V232H377.02V0Z" fill="white"/>
<path d="M415.637 96.6667C396.328 96.6667 396.328 116 396.328 116V0H415.637V96.6667Z" fill="white"/>
<path d="M386.674 113.1C381.343 113.1 377.02 108.771 377.02 103.433V116H396.329V103.433C396.329 108.771 392.005 113.1 386.674 113.1Z" fill="white"/>
<path d="M377.02 0V12.5667C377.02 7.22873 381.343 2.9 386.674 2.9C392.005 2.9 396.329 7.22873 396.329 12.5667V0H377.02Z" fill="white"/>
<path d="M415.637 5.8C416.216 2.32 418.147 0.58 421.43 0H415.637V5.8Z" fill="white"/>
<path d="M357.711 5.8C357.131 2.32 355.201 0.58 351.918 0H357.711V5.8Z" fill="white"/>
<path d="M164.809 58C179.484 58 203.234 95.5066 203.234 116L222.543 106.333V96.6666C204.972 96.6666 184.118 77.9133 184.118 58C184.118 40.7894 164.809 58 164.809 58Z" fill="white"/>
<path d="M106.688 154.473V174H116.342C111.011 174 106.688 159.811 106.688 154.473Z" fill="white"/>
<path d="M116.344 174H125.998V154.473C125.998 159.811 121.675 174 116.344 174Z" fill="white"/>
<path d="M126 173.807V154.667C126 154.667 145.309 150.8 145.309 154.667C126 154.667 126 173.807 126 173.807Z" fill="white"/>
<path d="M106.688 173.807V154.667C106.688 154.667 87.3789 150.8 87.3789 154.667C106.688 154.667 106.688 173.807 106.688 173.807Z" fill="white"/>
</g>
<defs>
<clipPath id="clip0_225_258">
<rect width="464" height="232" fill="white"/>
</clipPath>
</defs>
</svg>
